<?xml version="1.0" encoding="UTF-8"?>
<svg viewBox="0 0 124 20" version="1.1" xmlns="http://www.w3.org/2000/svg" xmlns:xlink="http://www.w3.org/1999/xlink">
    <g id="Page-1" stroke="none" stroke-width="1" fill="none" fill-rule="evenodd">
        <g id="LOGO">
            <g id="Group" transform="translate(77.000000, 6.000000)" fill="#000000" fill-rule="nonzero">
                <path d="M11.7,0.3 L9,8.8 L8.4,8.8 L5.9,1.4 C5.9,1.3 5.8,1.2 5.8,1.1 C5.8,1.2 5.7,1.3 5.7,1.4 L3.2,8.8 L2.7,8.8 L-5.68434189e-14,0.3 L0.5,0.3 C0.6,0.3 0.7,0.4 0.7,0.5 L2.8,7.5 C2.8,7.7 2.9,7.8 2.9,8 C2.9,7.9 2.9,7.8 3,7.7 C3,7.6 3,7.5 3.1,7.4 L5.5,0.4 C5.5,0.4 5.5,0.3 5.6,0.3 C5.6,0.3 5.7,0.3 5.7,0.3 L5.9,0.3 C6,0.3 6,0.3 6,0.3 C6,0.3 6.1,0.4 6.1,0.4 L8.5,7.4 C8.5,7.5 8.6,7.6 8.6,7.7 C8.6,7.8 8.6,7.9 8.7,8 C8.7,7.9 8.7,7.8 8.8,7.7 C8.8,7.6 8.8,7.5 8.9,7.4 L11,0.4 C11,0.4 11,0.3 11.1,0.3 C11.1,0.3 11.2,0.3 11.2,0.3 L11.7,0.3 Z" id="Shape"></path>
                <path d="M21.7,4.5 C21.7,5.2 21.6,5.8 21.4,6.3 C21.2,6.8 20.9,7.3 20.6,7.7 C20.2,8.1 19.8,8.4 19.3,8.6 C18.8,8.8 18.3,8.9 17.7,8.9 C17.1,8.9 16.6,8.8 16.1,8.6 C15.6,8.4 15.2,8.1 14.8,7.7 C14.4,7.3 14.2,6.9 14,6.3 C13.8,5.8 13.7,5.2 13.7,4.5 C13.7,3.8 13.8,3.3 14,2.7 C14.2,2.2 14.5,1.7 14.8,1.3 C15.2,0.9 15.6,0.6 16.1,0.4 C16.6,0.2 17.1,0.1 17.7,0.1 C18.3,0.1 18.9,0.2 19.3,0.4 C19.8,0.6 20.2,0.9 20.6,1.3 C21,1.7 21.2,2.1 21.4,2.7 C21.6,3.3 21.7,3.9 21.7,4.5 Z M21,4.5 C21,3.9 20.9,3.4 20.8,2.9 C20.7,2.4 20.4,2 20.1,1.7 C19.8,1.4 19.4,1.1 19,0.9 C18.6,0.7 18.1,0.6 17.6,0.6 C17.1,0.6 16.6,0.7 16.2,0.9 C15.8,1.1 15.4,1.3 15.1,1.7 C14.8,2 14.6,2.4 14.4,2.9 C14.2,3.4 14.1,3.9 14.1,4.5 C14.1,5.1 14.2,5.6 14.4,6.1 C14.6,6.6 14.8,7 15.1,7.3 C15.4,7.6 15.8,7.9 16.2,8.1 C16.6,8.3 17.1,8.4 17.6,8.4 C18.1,8.4 18.6,8.3 19,8.1 C19.4,7.9 19.8,7.7 20.1,7.3 C20.4,7 20.6,6.6 20.8,6.1 C20.9,5.7 21,5.1 21,4.5 Z" id="Shape"></path>
                <path d="M30.4,8.8 L29.9,8.8 C29.8,8.8 29.8,8.8 29.7,8.8 C29.7,8.8 29.6,8.7 29.6,8.7 L26.9,5.3 C26.9,5.3 26.8,5.2 26.8,5.2 C26.8,5.2 26.7,5.1 26.7,5.1 C26.7,5.1 26.6,5.1 26.5,5.1 C26.4,5.1 26.4,5.1 26.3,5.1 L25.2,5.1 L25.2,8.9 L24.6,8.9 L24.6,0.4 L26.8,0.4 C27.8,0.4 28.5,0.6 29,1 C29.5,1.4 29.7,1.9 29.7,2.7 C29.7,3 29.6,3.3 29.5,3.6 C29.4,3.9 29.2,4.1 29,4.3 C28.8,4.5 28.5,4.7 28.2,4.8 C27.9,4.9 27.6,5 27.2,5.1 C27.3,5.2 27.4,5.2 27.5,5.3 L30.4,8.8 Z M26.6,4.5 C27,4.5 27.3,4.5 27.6,4.4 C27.9,4.3 28.1,4.2 28.4,4 C28.6,3.8 28.8,3.6 28.9,3.4 C29,3.2 29.1,2.9 29.1,2.6 C29.1,2 28.9,1.5 28.5,1.3 C28.1,1 27.5,0.9 26.8,0.9 L25.2,0.9 L25.2,4.6 L26.6,4.6 L26.6,4.5 Z" id="Shape"></path>
                <polygon id="Shape" points="37.3 8.3 37.3 8.8 32.7 8.8 32.7 0.3 33.3 0.3 33.3 8.3"></polygon>
                <path d="M46.8,4.5 C46.8,5.2 46.7,5.7 46.5,6.3 C46.3,6.9 46,7.3 45.7,7.6 C45.3,8 44.9,8.3 44.4,8.4 C43.9,8.6 43.4,8.7 42.8,8.7 L39.7,8.7 L39.7,0.2 L42.8,0.2 C43.4,0.2 44,0.3 44.4,0.5 C44.9,0.7 45.3,1 45.7,1.3 C46.1,1.7 46.3,2.1 46.5,2.6 C46.7,3.1 46.8,3.9 46.8,4.5 Z M46.1,4.5 C46.1,3.9 46,3.4 45.9,2.9 C45.7,2.4 45.5,2 45.2,1.7 C44.9,1.4 44.5,1.1 44.1,1 C43.7,0.8 43.2,0.7 42.7,0.7 L40.2,0.7 L40.2,8.2 L42.7,8.2 C43.2,8.2 43.7,8.1 44.1,7.9 C44.5,7.7 44.9,7.5 45.2,7.2 C45.5,6.9 45.7,6.5 45.9,6 C46,5.7 46.1,5.1 46.1,4.5 Z" id="Shape"></path>
            </g>
            <g id="Group" transform="translate(0.000000, 6.000000)" fill="#000000" fill-rule="nonzero">
                <path d="M6.6,0.4 C6.6,0.5 6.6,0.6 6.5,0.6 L1.1,8.1 L6.5,8.1 L6.5,8.6 L0.2,8.6 L0.2,8.4 C0.2,8.4 0.2,8.3 0.2,8.3 C0.2,8.3 0.2,8.2 0.3,8.2 L5.7,0.6 L0.4,0.6 L0.4,0.1 L6.5,0.1 L6.5,0.4 L6.6,0.4 Z" id="Shape"></path>
                <polygon id="Shape" points="14.1 8.2 14.1 8.7 9 8.7 9 0.2 14.1 0.2 14.1 0.7 9.6 0.7 9.6 4.1 13.3 4.1 13.3 4.6 9.6 4.6 9.6 8.1 14.1 8.1"></polygon>
                <polygon id="Shape" points="21.3 8.2 21.3 8.7 16.7 8.7 16.7 0.2 17.3 0.2 17.3 8.2"></polygon>
                <polygon id="Shape" points="28.5 8.2 28.5 8.7 23.4 8.7 23.4 0.2 28.5 0.2 28.5 0.7 24 0.7 24 4.1 27.7 4.1 27.7 4.6 24 4.6 24 8.1 28.5 8.1"></polygon>
                <path d="M37.6,0.2 L37.6,8.7 L37.3,8.7 C37.2,8.7 37.2,8.7 37.2,8.7 C37.2,8.7 37.1,8.7 37.1,8.6 L31.6,1.2 C31.6,1.3 31.6,1.4 31.6,1.5 L31.6,8.7 L31,8.7 L31,0.2 L31.3,0.2 C31.4,0.2 31.4,0.2 31.4,0.2 C31.4,0.2 31.5,0.2 31.5,0.3 L37,7.7 C37,7.6 37,7.5 37,7.4 L37,0.3 L37.6,0.3 L37.6,0.2 Z" id="Shape"></path>
                <polygon id="Shape" points="41.4 8.7 40.8 8.7 40.8 0.2 41.4 0.2"></polygon>
                <path d="M51.2,0.2 L51.2,8.7 L50.9,8.7 C50.8,8.7 50.8,8.7 50.8,8.7 C50.8,8.7 50.7,8.7 50.7,8.6 L45.2,1.2 C45.2,1.3 45.2,1.4 45.2,1.5 L45.2,8.7 L44.7,8.7 L44.7,0.2 L45,0.2 C45.1,0.2 45.1,0.2 45.1,0.2 C45.1,0.2 45.2,0.2 45.2,0.3 L50.7,7.7 C50.7,7.6 50.7,7.5 50.7,7.4 L50.7,0.3 L51.2,0.3 L51.2,0.2 Z" id="Shape"></path>
            </g>
            <path d="M73.2,10 C73.2,5.3 69.4,1.5 64.7,1.5 C60,1.5 56.2,5.3 56.2,10 C56.2,14.7 60,18.5 64.7,18.5 C69.4,18.4 73.2,14.6 73.2,10" id="Shape" stroke="#939598" stroke-width="0.5102" stroke-linecap="round" stroke-linejoin="round"></path>
            <path d="M64.7,1.6 L62.4,4.3" id="Shape" stroke="#939598" stroke-width="0.3402" stroke-linecap="round" stroke-linejoin="round"></path>
            <path d="M62.4,4.3 L58.8,4.1" id="Shape" stroke="#939598" stroke-width="0.3402" stroke-linecap="round" stroke-linejoin="round"></path>
            <path d="M58.8,4.1 L59.1,7.6" id="Shape" stroke="#939598" stroke-width="0.3402" stroke-linecap="round" stroke-linejoin="round"></path>
            <path d="M59.1,7.6 L56.4,10" id="Shape" stroke="#939598" stroke-width="0.3402" stroke-linecap="round" stroke-linejoin="round"></path>
            <path d="M59.1,7.6 L60.2,10" id="Shape" stroke="#939598" stroke-width="0.3402" stroke-linecap="round" stroke-linejoin="round"></path>
            <path d="M59.1,7.6 L61.5,6.8" id="Shape" stroke="#939598" stroke-width="0.3402" stroke-linecap="round" stroke-linejoin="round"></path>
            <path d="M61.5,6.8 L62.4,4.3" id="Shape" stroke="#939598" stroke-width="0.3402" stroke-linecap="round" stroke-linejoin="round"></path>
            <path d="M62.4,4.3 L64.7,5.4" id="Shape" stroke="#939598" stroke-width="0.3402" stroke-linecap="round" stroke-linejoin="round"></path>
            <path d="M61.5,6.8 L64.7,5.4" id="Shape" stroke="#939598" stroke-width="0.3402" stroke-linecap="round" stroke-linejoin="round"></path>
            <path d="M61.5,6.8 L60.2,10" id="Shape" stroke="#939598" stroke-width="0.3402" stroke-linecap="round" stroke-linejoin="round"></path>
            <path d="M62.4,4.3 L61.5,2.3" id="Shape" stroke="#939598" stroke-width="0.3402" stroke-linecap="round" stroke-linejoin="round"></path>
            <path d="M59.1,7.6 L57,6.8" id="Shape" stroke="#939598" stroke-width="0.3402" stroke-linecap="round" stroke-linejoin="round"></path>
            <path d="M64.7,1.6 L67,4.3" id="Shape" stroke="#939598" stroke-width="0.3402" stroke-linecap="round" stroke-linejoin="round"></path>
            <path d="M67,4.3 L70.6,4.1" id="Shape" stroke="#939598" stroke-width="0.3402" stroke-linecap="round" stroke-linejoin="round"></path>
            <path d="M70.6,4.1 L70.3,7.6" id="Shape" stroke="#939598" stroke-width="0.3402" stroke-linecap="round" stroke-linejoin="round"></path>
            <path d="M70.3,7.6 L73,10" id="Shape" stroke="#939598" stroke-width="0.3402" stroke-linecap="round" stroke-linejoin="round"></path>
            <path d="M70.3,7.6 L69.2,10" id="Shape" stroke="#939598" stroke-width="0.3402" stroke-linecap="round" stroke-linejoin="round"></path>
            <path d="M70.3,7.6 L67.9,6.8" id="Shape" stroke="#939598" stroke-width="0.3402" stroke-linecap="round" stroke-linejoin="round"></path>
            <path d="M67.9,6.8 L67,4.3" id="Shape" stroke="#939598" stroke-width="0.3402" stroke-linecap="round" stroke-linejoin="round"></path>
            <path d="M67,4.3 L64.7,5.4" id="Shape" stroke="#939598" stroke-width="0.3402" stroke-linecap="round" stroke-linejoin="round"></path>
            <path d="M67.9,6.8 L64.7,5.4" id="Shape" stroke="#939598" stroke-width="0.3402" stroke-linecap="round" stroke-linejoin="round"></path>
            <path d="M67.9,6.8 L69.2,10" id="Shape" stroke="#939598" stroke-width="0.3402" stroke-linecap="round" stroke-linejoin="round"></path>
            <path d="M67,4.3 L67.9,2.3" id="Shape" stroke="#939598" stroke-width="0.3402" stroke-linecap="round" stroke-linejoin="round"></path>
            <path d="M70.3,7.6 L72.4,6.8" id="Shape" stroke="#939598" stroke-width="0.3402" stroke-linecap="round" stroke-linejoin="round"></path>
            <path d="M64.7,18.3 L62.4,15.6" id="Shape" stroke="#939598" stroke-width="0.3402" stroke-linecap="round" stroke-linejoin="round"></path>
            <path d="M62.4,15.6 L58.8,15.8" id="Shape" stroke="#939598" stroke-width="0.3402" stroke-linecap="round" stroke-linejoin="round"></path>
            <path d="M58.8,15.8 L59.1,12.3" id="Shape" stroke="#939598" stroke-width="0.3402" stroke-linecap="round" stroke-linejoin="round"></path>
            <path d="M59.1,12.3 L56.4,10" id="Shape" stroke="#939598" stroke-width="0.3402" stroke-linecap="round" stroke-linejoin="round"></path>
            <path d="M59.1,12.3 L60.2,10" id="Shape" stroke="#939598" stroke-width="0.3402" stroke-linecap="round" stroke-linejoin="round"></path>
            <path d="M59.1,12.3 L61.5,13.1" id="Shape" stroke="#939598" stroke-width="0.3402" stroke-linecap="round" stroke-linejoin="round"></path>
            <path d="M61.5,13.1 L62.4,15.6" id="Shape" stroke="#939598" stroke-width="0.3402" stroke-linecap="round" stroke-linejoin="round"></path>
            <path d="M62.4,15.6 L64.7,14.5" id="Shape" stroke="#939598" stroke-width="0.3402" stroke-linecap="round" stroke-linejoin="round"></path>
            <path d="M61.5,13.1 L64.7,14.5" id="Shape" stroke="#939598" stroke-width="0.3402" stroke-linecap="round" stroke-linejoin="round"></path>
            <path d="M61.5,13.1 L60.2,10" id="Shape" stroke="#939598" stroke-width="0.3402" stroke-linecap="round" stroke-linejoin="round"></path>
            <path d="M59.1,12.3 L57,13.1" id="Shape" stroke="#939598" stroke-width="0.3402" stroke-linecap="round" stroke-linejoin="round"></path>
            <path d="M64.7,18.3 L67,15.6" id="Shape" stroke="#939598" stroke-width="0.3402" stroke-linecap="round" stroke-linejoin="round"></path>
            <path d="M67,15.6 L70.6,15.8" id="Shape" stroke="#939598" stroke-width="0.3402" stroke-linecap="round" stroke-linejoin="round"></path>
            <path d="M70.6,15.8 L70.3,12.3" id="Shape" stroke="#939598" stroke-width="0.3402" stroke-linecap="round" stroke-linejoin="round"></path>
            <path d="M70.3,12.3 L73,10" id="Shape" stroke="#939598" stroke-width="0.3402" stroke-linecap="round" stroke-linejoin="round"></path>
            <path d="M70.3,12.3 L69.2,10" id="Shape" stroke="#939598" stroke-width="0.3402" stroke-linecap="round" stroke-linejoin="round"></path>
            <path d="M70.3,12.3 L67.9,13.1" id="Shape" stroke="#939598" stroke-width="0.3402" stroke-linecap="round" stroke-linejoin="round"></path>
            <path d="M67.9,13.1 L67,15.6" id="Shape" stroke="#939598" stroke-width="0.3402" stroke-linecap="round" stroke-linejoin="round"></path>
            <path d="M67,15.6 L64.7,14.5" id="Shape" stroke="#939598" stroke-width="0.3402" stroke-linecap="round" stroke-linejoin="round"></path>
            <path d="M67.9,13.1 L64.7,14.5" id="Shape" stroke="#939598" stroke-width="0.3402" stroke-linecap="round" stroke-linejoin="round"></path>
            <path d="M67.9,13.1 L69.2,10" id="Shape" stroke="#939598" stroke-width="0.3402" stroke-linecap="round" stroke-linejoin="round"></path>
            <path d="M67,15.6 L67.9,17.6" id="Shape" stroke="#939598" stroke-width="0.3402" stroke-linecap="round" stroke-linejoin="round"></path>
            <path d="M70.3,12.3 L72.4,13.1" id="Shape" stroke="#939598" stroke-width="0.3402" stroke-linecap="round" stroke-linejoin="round"></path>
            <path d="M62.4,15.6 L61.5,17.6" id="Shape" stroke="#939598" stroke-width="0.3402" stroke-linecap="round" stroke-linejoin="round"></path>
            <polygon id="Shape" points="124 0 124 20 0 20 0 0"></polygon>
        </g>
    </g>
</svg>